<?xml version="1.0" standalone="no"?>
<!DOCTYPE svg PUBLIC "-//W3C//DTD SVG 20010904//EN"
 "http://www.w3.org/TR/2001/REC-SVG-20010904/DTD/svg10.dtd">
<svg version="1.0" xmlns="http://www.w3.org/2000/svg"
 width="300.000000pt" height="195.000000pt" viewBox="0 0 300.000000 195.000000"
 preserveAspectRatio="xMidYMid meet">
<metadata>
Created by potrace 1.10, written by Peter Selinger 2001-2011
</metadata>
<g transform="translate(0.000000,195.000000) scale(0.100000,-0.100000)"
fill="#9900ff" stroke="none">
<path d="M1410 1624 c-202 -17 -416 -141 -548 -315 -31 -41 -80 -123 -84 -139
-2 -8 -6 -17 -9 -20 -15 -11 -59 -181 -65 -251 -7 -87 8 -222 35 -307 19 -58
84 -187 112 -221 8 -9 27 -33 42 -54 36 -47 145 -136 222 -179 128 -72 246
-100 406 -97 135 2 219 23 339 83 90 46 114 63 204 151 201 196 278 495 200
775 -15 54 -72 190 -84 200 -4 3 -20 25 -37 50 -97 143 -266 258 -448 305 -55
14 -214 25 -285 19z m212 -39 c106 -13 244 -71 343 -145 45 -34 133 -128 168
-181 134 -203 163 -471 75 -706 -35 -95 -89 -175 -178 -264 -72 -71 -102 -93
-180 -131 -132 -64 -210 -82 -350 -82 -428 -1 -751 320 -759 753 -5 239 99
453 298 614 25 20 150 90 166 94 5 1 36 11 67 22 32 12 86 24 120 27 35 3 65
8 68 11 4 4 72 -1 162 -12z"/>
<path d="M1320 1529 c-444 -116 -665 -602 -462 -1019 38 -79 61 -109 132 -181
85 -85 126 -113 230 -158 165 -71 357 -75 533 -10 395 145 576 598 392 986
-90 192 -259 330 -469 383 -105 26 -253 26 -356 -1z m375 -18 c80 -25 110 -39
175 -79 154 -97 266 -247 311 -419 25 -97 27 -261 4 -348 -37 -143 -124 -280
-235 -373 -334 -276 -830 -190 -1059 185 -71 116 -108 301 -90 447 39 310 285
558 604 610 60 9 230 -4 290 -23z"/>
<path d="M1334 1480 c-191 -50 -347 -177 -435 -355 -92 -185 -91 -401 3 -590
124 -251 405 -402 676 -365 230 32 418 164 520 366 52 104 66 166 66 299 -1
104 -4 131 -28 200 -40 117 -80 180 -170 270 -93 93 -182 145 -302 175 -99 26
-233 26 -330 0z m325 -16 c140 -35 272 -124 364 -247 37 -49 93 -160 101 -200
22 -108 26 -138 26 -197 0 -37 -9 -102 -20 -145 -30 -119 -122 -275 -161 -275
-27 0 -24 30 6 62 43 46 102 178 119 263 46 241 -72 495 -294 632 -76 47 -174
74 -282 78 -178 7 -341 -63 -464 -199 -46 -50 -108 -149 -121 -191 -26 -88
-42 -169 -42 -205 3 -117 60 -287 126 -372 31 -39 109 -112 136 -127 24 -13
30 -11 96 34 38 26 83 62 100 79 l31 32 -74 0 c-84 0 -93 4 -142 81 -71 111
-88 154 -95 238 -4 44 -14 104 -23 133 -18 63 -23 134 -12 182 9 36 59 112 95
142 41 35 127 77 186 93 175 45 325 -15 393 -157 36 -77 43 -112 43 -230 0
-86 -2 -98 -34 -159 -31 -60 -32 -69 -22 -105 9 -30 16 -38 31 -36 86 13 110
12 140 -6 49 -31 77 -99 75 -185 -2 -90 -14 -137 -43 -164 -41 -38 -174 -102
-244 -119 -122 -29 -365 -2 -401 44 -24 30 -13 50 51 95 57 40 66 43 79 30 11
-11 13 -23 7 -44 -12 -40 3 -36 23 5 l16 34 -32 12 -32 11 25 19 c32 25 40 25
40 1 0 -19 29 -94 30 -76 0 6 -5 26 -11 45 -5 19 -12 71 -13 115 -4 80 -4 81
28 103 17 12 59 50 93 83 l62 61 10 -39 c6 -22 21 -55 34 -74 l23 -34 -61 -70
c-85 -98 -142 -171 -126 -160 11 6 13 4 8 -9 -4 -10 -10 -30 -13 -44 l-5 -27
25 28 c23 25 69 48 175 88 49 19 10 20 -56 1 -37 -11 -81 -23 -98 -26 l-30 -6
40 34 c21 19 43 32 47 30 4 -3 8 1 8 8 0 7 17 29 36 48 19 19 38 47 41 62 7
35 17 43 79 61 47 14 54 14 74 0 49 -34 62 -117 35 -228 -19 -79 -19 -91 -1
-75 41 33 48 246 10 297 -31 42 -64 50 -126 30 -61 -19 -66 -16 -94 72 -13 42
-14 58 -5 70 44 61 61 117 61 207 0 216 -92 340 -261 352 -140 10 -306 -73
-361 -182 -17 -34 -20 -52 -15 -116 3 -41 13 -95 21 -119 9 -24 16 -71 16
-104 0 -51 6 -71 43 -140 23 -44 57 -96 74 -115 31 -33 35 -34 85 -29 29 3 63
8 76 12 21 7 22 4 22 -38 0 -39 -5 -49 -38 -79 -22 -20 -67 -54 -101 -77 -58
-40 -62 -45 -56 -72 9 -38 -9 -38 -32 1 -12 20 -25 30 -42 30 -17 0 -47 23
-100 78 -138 140 -199 298 -188 492 15 280 212 520 487 594 75 20 238 20 319
0z m-34 -78 c62 -8 185 -68 231 -111 7 -6 25 -22 40 -36 38 -32 76 -83 106
-144 83 -164 89 -339 16 -493 l-30 -63 -27 58 c-45 93 -112 135 -192 119 -42
-8 -46 11 -13 81 50 104 45 290 -10 410 -29 61 -91 132 -141 159 -33 17 -50
39 -22 29 6 -3 26 -7 42 -9z m-90 -106 c56 -24 101 -74 127 -139 17 -45 22
-78 22 -162 l1 -107 -49 -72 c-46 -68 -172 -189 -241 -231 -44 -28 -125 -26
-152 4 -29 33 -85 128 -79 135 4 3 -1 13 -9 22 -16 17 -19 36 -17 89 2 25 6
32 17 27 8 -3 15 -1 15 4 0 6 -9 10 -20 10 -11 0 -20 4 -20 9 0 8 68 4 78 -4
2 -2 -1 -20 -7 -40 -13 -50 1 -79 34 -71 80 20 98 50 26 44 -40 -3 -39 -5 -27
74 5 34 3 48 -9 58 -8 7 -15 21 -15 31 0 11 -6 19 -14 19 -7 0 -29 2 -47 5
-32 5 -32 5 -11 -7 l23 -12 -23 -13 c-22 -12 -22 -12 8 -7 37 7 74 -10 74 -33
0 -14 -2 -14 -20 2 -14 13 -29 16 -54 12 -38 -6 -34 -15 -52 114 -6 49 8 93
45 139 29 36 32 22 10 -44 -21 -64 -24 -103 -9 -126 6 -10 9 1 9 36 -1 57 16
130 32 140 8 4 7 9 -2 14 -17 11 72 67 136 85 93 26 151 25 220 -5z m-545
-263 c0 -12 7 -47 16 -77 8 -30 19 -91 23 -135 8 -79 26 -129 86 -235 28 -49
100 -120 121 -120 8 0 14 -6 14 -14 0 -16 -59 -56 -84 -56 -9 0 -43 27 -75 59
-66 66 -123 170 -146 266 -25 105 -17 238 18 313 13 28 27 28 27 -1z m164
-112 c-6 -16 -24 -21 -24 -7 0 11 11 22 21 22 5 0 6 -7 3 -15z"/>
<path d="M1507 567 l-37 -22 2 -77 c1 -42 6 -75 10 -72 4 3 8 9 8 15 0 5 15
48 34 94 18 47 31 85 27 85 -3 -1 -23 -11 -44 -23z"/>
<path d="M1821 523 c-17 -70 -74 -156 -145 -221 -81 -73 -108 -86 -201 -93
l-80 -6 110 -1 c90 -1 117 2 150 18 22 11 46 19 53 20 17 0 109 47 117 60 8
12 -17 13 -30 1 -17 -15 -125 -50 -118 -38 4 7 31 41 61 76 65 77 105 157 100
203 -3 31 -4 30 -17 -19z"/>
<path d="M1414 1272 c4 -7 19 -12 33 -12 42 0 106 -36 132 -75 13 -20 26 -33
29 -30 11 10 -48 83 -80 98 -46 22 -124 34 -114 19z"/>
<path d="M1240 1217 c-43 -22 -70 -83 -69 -157 l1 -65 10 64 c8 61 34 128 44
118 3 -3 17 1 32 9 33 17 57 2 42 -26 -12 -22 -14 -140 -2 -140 4 0 8 26 8 58
1 48 12 87 42 145 6 12 -81 8 -108 -6z"/>
<path d="M1360 1205 c-16 -19 -40 -101 -40 -137 0 -36 20 -37 21 0 1 46 7 80
18 99 6 11 11 13 11 5 0 -9 7 -11 21 -7 19 6 20 3 17 -52 -3 -57 -4 -58 -52
-90 -47 -30 -66 -49 -66 -65 0 -4 6 -5 13 -2 9 3 12 -7 11 -38 -2 -24 0 -32 2
-18 12 65 16 72 49 86 26 10 45 12 76 5 22 -5 43 -11 45 -14 5 -5 -38 -51 -73
-79 -21 -16 -84 -38 -110 -38 -7 0 -13 9 -13 21 0 11 -4 17 -10 14 -5 -3 -10
-15 -10 -26 0 -11 -4 -17 -10 -14 -5 3 -10 -2 -10 -13 0 -15 5 -18 24 -15 17
4 29 -2 41 -19 l17 -23 -5 23 c-4 17 -2 22 7 19 7 -3 19 -1 27 5 11 8 11 9 -3
4 -10 -3 -20 -1 -23 4 -3 5 7 12 22 16 15 4 52 24 81 46 35 26 52 34 52 24 0
-8 -5 -18 -10 -21 -6 -4 -8 -10 -5 -14 2 -5 -6 -20 -20 -35 -13 -14 -19 -28
-14 -31 5 -4 9 0 10 7 1 7 4 2 8 -12 7 -23 9 -19 29 33 15 40 19 63 13 75 -5
10 -7 30 -4 45 5 25 3 27 -33 29 -22 1 -52 1 -69 1 l-30 -1 33 26 c31 26 32
30 32 100 0 69 -1 73 -26 82 -32 12 -29 13 -44 -5z"/>
<path d="M1537 1191 c4 -16 1 -21 -15 -21 -12 0 -23 -9 -27 -20 -3 -11 -13
-20 -21 -20 -16 0 -19 -16 -4 -25 15 -9 50 4 50 19 0 22 22 36 41 26 14 -8 16
-6 12 10 -3 10 -13 26 -23 35 -18 16 -18 16 -13 -4z"/>
<path d="M1561 1062 c-33 -32 -46 -99 -31 -151 11 -38 11 -35 -42 -108 -21
-29 -34 -53 -29 -53 5 0 12 4 15 9 11 17 98 63 127 66 39 5 44 9 63 49 32 68
14 180 -33 206 -29 15 -40 13 -70 -18z m79 -17 c18 -19 25 -40 28 -83 4 -52 1
-61 -23 -90 -34 -41 -60 -41 -85 1 -33 53 -23 152 18 183 25 19 36 17 62 -11z"/>
<path d="M1585 1024 c-8 -9 -18 -27 -21 -41 -8 -32 12 -99 31 -107 26 -10 55
30 55 75 0 67 -33 104 -65 73z m47 -39 c13 -29 2 -75 -19 -83 -10 -3 -13 12
-13 52 0 60 13 72 32 31z"/>
<path d="M1365 968 c-26 -15 -35 -28 -35 -56 0 -20 4 -22 23 -16 59 18 121 60
111 75 -7 13 -75 10 -99 -3z"/>
<path d="M1420 865 c-19 -14 -30 -25 -25 -25 6 0 24 11 40 25 39 31 30 31 -15
0z"/>
<path d="M1396 805 c-11 -8 -15 -15 -9 -15 7 0 15 5 18 11 4 6 14 8 22 5 8 -3
11 -1 8 4 -8 13 -16 12 -39 -5z"/>
<path d="M1533 769 c-18 -5 -33 -14 -33 -20 0 -6 6 -7 12 -2 7 4 25 6 40 4 20
-2 28 2 28 13 0 18 -2 18 -47 5z"/>
<path d="M1269 724 c-6 -7 -17 -10 -25 -7 -12 4 -16 -2 -13 -23 0 -4 -5 -11
-13 -15 -9 -6 -7 -9 10 -9 12 0 22 -6 22 -14 0 -19 35 -30 57 -17 25 14 108
101 97 101 -6 0 -15 -5 -21 -11 -8 -8 -25 -8 -57 -1 -35 7 -48 6 -57 -4z m14
-34 c8 0 7 -4 -1 -12 -9 -9 -16 -8 -30 6 -16 18 -16 19 1 12 10 -3 24 -6 30
-6z"/>
<path d="M1283 603 c9 -2 25 -2 35 0 9 3 1 5 -18 5 -19 0 -27 -2 -17 -5z"/>
</g>
</svg>
